<?xml version="1.0" encoding="utf-8"?>
<!-- Generator: Adobe Illustrator 22.1.0, SVG Export Plug-In . SVG Version: 6.00 Build 0)  -->
<svg version="1.1" id="Layer_1" xmlns="http://www.w3.org/2000/svg" xmlns:xlink="http://www.w3.org/1999/xlink" x="0px" y="0px"
	 viewBox="0 0 200 200" style="enable-background:new 0 0 200 200;" xml:space="preserve">
<style type="text/css">
	.st0{enable-background:new    ;}
	.st1{display:none;}
	.st2{display:inline;}
</style>
<g>
	<g class="st0">
		<path d="M8.6,153.9H2.5v-40.6h8.8l5.7,27.1l5.5-27.1h8.4v40.6h-6.1v-25.3l-5.3,25.3h-5l-5.9-25.2V153.9z"/>
	</g>
	<g class="st0">
		<path d="M42.9,144.6l-1.5,9.4H35l6.9-40.5h8.5l6.8,40.5h-6.4l-1.5-9.4H42.9z M46.1,120.7l-2.3,18h4.5L46.1,120.7z"/>
		<path d="M78,153.9H61.3v-40.5h6.1v34.4H78V153.9z"/>
		<path d="M88.4,136.7v17.2h-6.2v-40.5h6.2v17.2h7.3v-17.2h6.2v40.5h-6.2v-17.2H88.4z"/>
		<path d="M115.7,112.9c2.8,0,5.1,0.9,7,2.7c1.8,1.8,2.8,4.1,2.8,7v22.1c0,2.8-0.9,5.1-2.8,7c-1.8,1.8-4.2,2.7-7,2.7
			c-2.7,0-5-0.9-6.9-2.7c-1.9-1.8-2.8-4.1-2.8-7v-22.1c0-2.8,0.9-5.1,2.8-7C110.7,113.9,113,112.9,115.7,112.9z M119.2,122.5
			c0-1-0.3-1.8-1-2.5c-0.7-0.7-1.5-1-2.5-1c-0.9,0-1.8,0.3-2.5,1c-0.7,0.7-1.1,1.5-1.1,2.5v22.1c0,1,0.4,1.8,1.1,2.5
			c0.7,0.7,1.5,1,2.5,1c1,0,1.9-0.3,2.5-1c0.7-0.7,1-1.5,1-2.5V122.5z"/>
		<path d="M135.3,119.5h-6.7v-6.1h19.1v6.1h-6.3v34.4h-6.1V119.5z"/>
		<path d="M161.6,113.4c6.4,0,9.6,3.2,9.6,9.6v5.9c0,2.8-1.1,5.3-3.2,7.3l4.4,17.7h-6.7l-3.4-15.4c-0.2,0.1-0.4,0.1-0.6,0.1H158
			v15.3h-6.1v-40.5H161.6z M165.2,123.2c0-2.3-1.2-3.5-3.5-3.5H158v12.9h3.7c1,0,1.8-0.3,2.5-1c0.7-0.7,1-1.5,1-2.5V123.2z"/>
		<path d="M184.5,144.6l-1.5,9.4h-6.4l6.9-40.5h8.5l6.8,40.5h-6.4l-1.5-9.4H184.5z M187.7,120.7l-2.3,18h4.5L187.7,120.7z"/>
	</g>
	<g>
		<rect x="61.2" y="39.9" width="21.5" height="59.1"/>
		<rect x="117.6" y="39.9" width="21.5" height="59.1"/>
		<rect x="89.4" y="57.3" width="21.5" height="41.7"/>
	</g>
</g>
<g class="st1">
	<g class="st2">
		<path d="M58.7,152.8c0.7,0,1.2,0.3,1.5,0.7l-0.4,0.5c-0.3-0.3-0.7-0.5-1.1-0.5c-1.1,0-1.8,0.9-1.8,2.3c0,1.4,0.7,2.3,1.8,2.3
			c0.5,0,0.9-0.2,1.3-0.6l0.4,0.4c-0.4,0.5-1,0.8-1.7,0.8c-1.4,0-2.5-1.1-2.5-2.9C56.2,153.9,57.3,152.8,58.7,152.8z"/>
		<path d="M64.4,155.7c0-1.8,1-2.9,2.4-2.9s2.4,1.1,2.4,2.9c0,1.8-1,3-2.4,3S64.4,157.5,64.4,155.7z M68.5,155.7
			c0-1.4-0.7-2.3-1.7-2.3s-1.7,0.9-1.7,2.3c0,1.4,0.7,2.3,1.7,2.3C67.9,158,68.5,157.1,68.5,155.7z"/>
		<path d="M74.1,157.3c0.4,0.4,1,0.7,1.6,0.7c0.7,0,1.2-0.4,1.2-0.9c0-0.6-0.4-0.8-0.9-1l-0.8-0.4c-0.5-0.2-1.1-0.6-1.1-1.5
			s0.8-1.5,1.8-1.5c0.7,0,1.3,0.3,1.7,0.7L77,154c-0.3-0.3-0.8-0.5-1.3-0.5c-0.6,0-1.1,0.3-1.1,0.8s0.5,0.7,0.9,0.9l0.8,0.3
			c0.7,0.3,1.2,0.7,1.2,1.5c0,0.9-0.7,1.6-1.9,1.6c-0.8,0-1.5-0.3-2-0.8L74.1,157.3z"/>
		<path d="M83.1,156.4l-1.7-3.5h0.8l0.7,1.6c0.2,0.4,0.4,0.8,0.6,1.2l0,0c0.2-0.4,0.4-0.8,0.6-1.2l0.7-1.6h0.7l-1.7,3.5v2.2h-0.7
			V156.4z"/>
		<path d="M98.3,158.6l-1.4-2.4h-1v2.4h-0.7V153H97c1.1,0,2,0.4,2,1.6c0,0.9-0.5,1.4-1.3,1.6l1.4,2.5h-0.8V158.6z M95.9,155.6h0.9
			c0.9,0,1.4-0.4,1.4-1.1c0-0.7-0.5-1-1.4-1h-0.9V155.6z"/>
		<path d="M103.8,152.9h3.3v0.6h-2.5v1.8h2.1v0.6h-2.1v2h2.6v0.6h-3.3L103.8,152.9L103.8,152.9z"/>
		<path d="M113.1,153.5h-1.7v-0.6h4.1v0.6h-1.7v5h-0.7C113.1,158.5,113.1,153.5,113.1,153.5z"/>
		<path d="M123.2,158.6l-1.4-2.4h-1v2.4h-0.7V153h1.8c1.1,0,2,0.4,2,1.6c0,0.9-0.5,1.4-1.3,1.6l1.4,2.5h-0.8V158.6z M120.8,155.6
			h0.9c0.9,0,1.4-0.4,1.4-1.1c0-0.7-0.5-1-1.4-1h-0.9V155.6z"/>
		<path d="M128.7,152.9h3.3v0.6h-2.5v1.8h2.1v0.6h-2.1v2h2.6v0.6h-3.3v-5.6H128.7z"/>
		<path d="M139.4,156.8h-2.1l-0.5,1.7H136l1.9-5.6h0.8l1.9,5.6h-0.8L139.4,156.8z M139.2,156.3l-0.3-0.9c-0.2-0.6-0.4-1.2-0.6-1.9
			l0,0c-0.2,0.7-0.4,1.3-0.6,1.9l-0.3,0.9H139.2z"/>
		<path d="M145.9,153.5h-1.7v-0.6h4.1v0.6h-1.7v5h-0.7L145.9,153.5L145.9,153.5z"/>
	</g>
	<g class="st2">
		<path d="M90.2,83.1l1.6,1.6c-1.3,1.3-3,2-4.9,2c-3.8,0-7-2.8-7-7.1c0-4.2,2.9-7.1,7-7.1c1.9,0,3.7,0.8,4.9,2l-1.6,1.6
			c-0.8-0.8-2-1.4-3.3-1.4c-2.9,0-4.6,2-4.6,4.8c0,3,2,4.8,4.6,4.8C88.2,84.5,89.4,84,90.2,83.1z"/>
	</g>
	<g class="st2">
		<path d="M103.9,89.9l1.6-1.6c1.3,1.3,2,3,2,4.9c0,3.8-2.8,7-7.1,7c-4.2,0-7.1-2.9-7.1-7c0-1.9,0.8-3.7,2-4.9l1.6,1.6
			c-0.8,0.8-1.4,2-1.4,3.3c0,2.9,2,4.6,4.8,4.6c3,0,4.8-2,4.8-4.6C105.2,91.9,104.7,90.7,103.9,89.9z"/>
	</g>
	<g class="st2">
		<path d="M110.6,76.2l-1.6-1.6c1.3-1.3,3-2,4.9-2c3.8,0,7,2.8,7,7.1c0,4.2-2.9,7.1-7,7.1c-1.9,0-3.7-0.8-4.9-2l1.6-1.6
			c0.8,0.8,2,1.4,3.3,1.4c2.9,0,4.6-2,4.6-4.8c0-3-2-4.8-4.6-4.8C112.7,74.8,111.5,75.3,110.6,76.2z"/>
	</g>
	<g class="st2">
		<path d="M97,69.4L95.4,71c-1.3-1.3-2-3-2-4.9c0-3.8,2.8-7,7.1-7c4.2,0,7.1,2.9,7.1,7c0,1.9-0.8,3.7-2,4.9l-1.6-1.6
			c0.8-0.8,1.4-2,1.4-3.3c0-2.9-2-4.6-4.8-4.6c-3,0-4.8,2-4.8,4.6C95.6,67.4,96.1,68.6,97,69.4z"/>
	</g>
	<g class="st2">
		<path d="M95.7,89.3H98c0,1.8-0.7,3.5-2,4.9c-2.7,2.7-6.9,3-10-0.1c-3-3-3-7.1-0.1-10c1.4-1.4,3.1-2,4.9-2v2.3
			c-1.2,0-2.4,0.5-3.3,1.4c-2,2-1.8,4.7,0.2,6.7c2.1,2.1,4.9,2,6.7,0.2C95.2,91.7,95.7,90.5,95.7,89.3z"/>
	</g>
	<g class="st2">
		<path d="M110.1,84.4v-2.3c1.8,0,3.5,0.7,4.9,2c2.7,2.7,3,6.9-0.1,10c-3,3-7.1,3-10,0.1c-1.4-1.4-2-3.1-2-4.9h2.3
			c0,1.2,0.5,2.4,1.4,3.3c2,2,4.7,1.8,6.7-0.2c2.1-2.1,2-4.9,0.2-6.7C112.5,84.9,111.3,84.4,110.1,84.4z"/>
	</g>
	<g class="st2">
		<path d="M105.2,70h-2.3c0-1.8,0.7-3.5,2-4.9c2.7-2.7,6.9-3,10,0.1c3,3,3,7.1,0.1,10c-1.4,1.4-3.1,2-4.9,2v-2.3
			c1.2,0,2.4-0.5,3.3-1.4c2-2,1.8-4.7-0.2-6.7c-2.1-2.1-4.9-2-6.7-0.2C105.7,67.6,105.2,68.8,105.2,70z"/>
	</g>
	<g class="st2">
		<path d="M90.7,74.9v2.3c-1.8,0-3.5-0.7-4.9-2c-2.7-2.7-3-6.9,0.1-10c3-3,7.1-3,10-0.1c1.4,1.4,2,3.1,2,4.9h-2.3
			c0-1.2-0.5-2.4-1.4-3.3c-2-2-4.7-1.8-6.7,0.2c-2.1,2.1-2,4.9-0.2,6.7C88.4,74.4,89.6,74.9,90.7,74.9z"/>
	</g>
	<path class="st2" d="M8.1,126.3H5.2V138H2.9v-11.8H0v-2.1h8.1V126.3z"/>
	<path class="st2" d="M24.4,124.2V138h-2.3v-5.8h-5.8v5.8H14v-13.9h2.3v5.8h5.8v-5.8h2.3V124.2z"/>
	<path class="st2" d="M33.4,126.5v3.5h5.8v2.3h-5.8v3.5h6.9v2.3H31v-13.9h9.3v2.3C40.3,126.5,33.4,126.5,33.4,126.5z"/>
	<path class="st2" d="M66.5,134.6l1.6,1.6c-1.3,1.3-3,2-4.9,2c-3.8,0-7-2.8-7-7.1c0-4.2,2.9-7.1,7-7.1c1.9,0,3.7,0.8,4.9,2l-1.6,1.6
		c-0.8-0.8-2-1.3-3.3-1.3c-2.9,0-4.6,2-4.6,4.8c0,3,2,4.8,4.6,4.8C64.5,135.9,65.7,135.4,66.5,134.6z"/>
	<path class="st2" d="M80.4,138.2c-9.2,0-9.2-14.3,0-14.3C89.6,124,89.6,138.2,80.4,138.2z M80.4,126.2c-6,0-6,9.7,0,9.7
		C86.5,136,86.5,126.2,80.4,126.2z"/>
	<path class="st2" d="M99.8,138.2c-9.2,0-9.2-14.3,0-14.3C108.9,124,109,138.2,99.8,138.2z M99.8,126.2c-6,0-6,9.7,0,9.7
		C105.8,136,105.8,126.2,99.8,126.2z"/>
	<path class="st2" d="M118.1,131.2l5.8,6.8h-3l-4.3-5.3l-1.3,1.5v3.8H113v-13.9h2.3v7l5.7-7h2.9L118.1,131.2z"/>
	<path class="st2" d="M129.4,124.2h2.3V138h-2.3V124.2z"/>
	<path class="st2" d="M140.8,126.5v3.5h5.8v2.3h-5.8v3.5h6.9v2.3h-9.3v-13.9h9.3v2.3C147.7,126.5,140.8,126.5,140.8,126.5z"/>
	<path class="st2" d="M169,124.1v9.9c0,4-4.1,4-4.1,4h-1.7v-2.3h1.7c1.7,0,1.7-1.7,1.7-1.7v-7.7h-2.5v-2.1h4.9V124.1z"/>
	<path class="st2" d="M182.2,136.4h-4.9l-0.6,1.6h-2.5l5.5-14.3l5.6,14.3h-2.5L182.2,136.4z M178,134.4h3.4l-1.7-4.8L178,134.4z"/>
	<path class="st2" d="M194.6,132.3h-1.9v5.8h-2.3v-13.9h4.6c0,0,4.6,0,4.6,4c0,2.2-1.4,3.2-2.7,3.7l2.8,6.2h-2.6L194.6,132.3z
		 M192.7,129.9h2.3c0,0,2.3,0,2.3-1.7s-2.3-1.7-2.3-1.7h-2.3V129.9z"/>
</g>
</svg>
