<?xml version="1.0" encoding="utf-8"?>
<!-- Generator: Adobe Illustrator 22.1.0, SVG Export Plug-In . SVG Version: 6.00 Build 0)  -->
<svg version="1.1" id="Layer_1" xmlns="http://www.w3.org/2000/svg" xmlns:xlink="http://www.w3.org/1999/xlink" x="0px" y="0px"
	 viewBox="0 0 200 200" enable-background="new 0 0 200 200" xml:space="preserve">
<g display="none">
	<text transform="matrix(1 0 0 1 0.4459 153.9453)" display="inline" font-family="'Wearetrippin-Display'" font-size="46.809px">M</text>
	<text transform="matrix(1 0 0 1 32.9459 153.9453)" display="inline" font-family="'Wearetrippin-Display'" font-size="46.809px">ALHOTRA</text>
	<g display="inline">
		<rect x="61.2" y="39.9" width="21.5" height="59.1"/>
		<rect x="117.6" y="39.9" width="21.5" height="59.1"/>
		<rect x="89.4" y="57.3" width="21.5" height="41.7"/>
	</g>
</g>
<g display="none">
	<g display="inline">
		<path d="M58.7,152.8c0.7,0,1.2,0.3,1.5,0.7l-0.4,0.5c-0.3-0.3-0.7-0.5-1.1-0.5c-1.1,0-1.8,0.9-1.8,2.3c0,1.4,0.7,2.3,1.8,2.3
			c0.5,0,0.9-0.2,1.3-0.6l0.4,0.4c-0.4,0.5-1,0.8-1.7,0.8c-1.4,0-2.5-1.1-2.5-2.9C56.2,153.9,57.3,152.8,58.7,152.8z"/>
		<path d="M64.4,155.7c0-1.8,1-2.9,2.4-2.9s2.4,1.1,2.4,2.9c0,1.8-1,3-2.4,3S64.4,157.5,64.4,155.7z M68.5,155.7
			c0-1.4-0.7-2.3-1.7-2.3s-1.7,0.9-1.7,2.3c0,1.4,0.7,2.3,1.7,2.3C67.9,158,68.5,157.1,68.5,155.7z"/>
		<path d="M74.1,157.3c0.4,0.4,1,0.7,1.6,0.7c0.7,0,1.2-0.4,1.2-0.9c0-0.6-0.4-0.8-0.9-1l-0.8-0.4c-0.5-0.2-1.1-0.6-1.1-1.5
			s0.8-1.5,1.8-1.5c0.7,0,1.3,0.3,1.7,0.7L77,154c-0.3-0.3-0.8-0.5-1.3-0.5c-0.6,0-1.1,0.3-1.1,0.8s0.5,0.7,0.9,0.9l0.8,0.3
			c0.7,0.3,1.2,0.7,1.2,1.5c0,0.9-0.7,1.6-1.9,1.6c-0.8,0-1.5-0.3-2-0.8L74.1,157.3z"/>
		<path d="M83.1,156.4l-1.7-3.5h0.8l0.7,1.6c0.2,0.4,0.4,0.8,0.6,1.2l0,0c0.2-0.4,0.4-0.8,0.6-1.2l0.7-1.6h0.7l-1.7,3.5v2.2h-0.7
			V156.4z"/>
		<path d="M98.3,158.6l-1.4-2.4h-1v2.4h-0.7V153H97c1.1,0,2,0.4,2,1.6c0,0.9-0.5,1.4-1.3,1.6l1.4,2.5h-0.8V158.6z M95.9,155.6h0.9
			c0.9,0,1.4-0.4,1.4-1.1c0-0.7-0.5-1-1.4-1h-0.9V155.6z"/>
		<path d="M103.8,152.9h3.3v0.6h-2.5v1.8h2.1v0.6h-2.1v2h2.6v0.6h-3.3v-5.6H103.8z"/>
		<path d="M113.1,153.5h-1.7v-0.6h4.1v0.6h-1.7v5h-0.7C113.1,158.5,113.1,153.5,113.1,153.5z"/>
		<path d="M123.2,158.6l-1.4-2.4h-1v2.4h-0.7V153h1.8c1.1,0,2,0.4,2,1.6c0,0.9-0.5,1.4-1.3,1.6l1.4,2.5h-0.8V158.6z M120.8,155.6
			h0.9c0.9,0,1.4-0.4,1.4-1.1c0-0.7-0.5-1-1.4-1h-0.9V155.6z"/>
		<path d="M128.7,152.9h3.3v0.6h-2.5v1.8h2.1v0.6h-2.1v2h2.6v0.6h-3.3v-5.6H128.7z"/>
		<path d="M139.4,156.8h-2.1l-0.5,1.7H136l1.9-5.6h0.8l1.9,5.6h-0.8L139.4,156.8z M139.2,156.3l-0.3-0.9c-0.2-0.6-0.4-1.2-0.6-1.9
			l0,0c-0.2,0.7-0.4,1.3-0.6,1.9l-0.3,0.9H139.2z"/>
		<path d="M145.9,153.5h-1.7v-0.6h4.1v0.6h-1.7v5h-0.7L145.9,153.5L145.9,153.5z"/>
	</g>
	<g display="inline">
		<path d="M90.2,83.1l1.6,1.6c-1.3,1.3-3,2-4.9,2c-3.8,0-7-2.8-7-7.1c0-4.2,2.9-7.1,7-7.1c1.9,0,3.7,0.8,4.9,2l-1.6,1.6
			c-0.8-0.8-2-1.4-3.3-1.4c-2.9,0-4.6,2-4.6,4.8c0,3,2,4.8,4.6,4.8C88.2,84.5,89.4,84,90.2,83.1z"/>
	</g>
	<g display="inline">
		<path d="M103.9,89.9l1.6-1.6c1.3,1.3,2,3,2,4.9c0,3.8-2.8,7-7.1,7c-4.2,0-7.1-2.9-7.1-7c0-1.9,0.8-3.7,2-4.9l1.6,1.6
			c-0.8,0.8-1.4,2-1.4,3.3c0,2.9,2,4.6,4.8,4.6c3,0,4.8-2,4.8-4.6C105.2,91.9,104.7,90.7,103.9,89.9z"/>
	</g>
	<g display="inline">
		<path d="M110.6,76.2l-1.6-1.6c1.3-1.3,3-2,4.9-2c3.8,0,7,2.8,7,7.1c0,4.2-2.9,7.1-7,7.1c-1.9,0-3.7-0.8-4.9-2l1.6-1.6
			c0.8,0.8,2,1.4,3.3,1.4c2.9,0,4.6-2,4.6-4.8c0-3-2-4.8-4.6-4.8C112.7,74.8,111.5,75.3,110.6,76.2z"/>
	</g>
	<g display="inline">
		<path d="M97,69.4L95.4,71c-1.3-1.3-2-3-2-4.9c0-3.8,2.8-7,7.1-7c4.2,0,7.1,2.9,7.1,7c0,1.9-0.8,3.7-2,4.9l-1.6-1.6
			c0.8-0.8,1.4-2,1.4-3.3c0-2.9-2-4.6-4.8-4.6c-3,0-4.8,2-4.8,4.6C95.6,67.4,96.1,68.6,97,69.4z"/>
	</g>
	<g display="inline">
		<path d="M95.7,89.3H98c0,1.8-0.7,3.5-2,4.9c-2.7,2.7-6.9,3-10-0.1c-3-3-3-7.1-0.1-10c1.4-1.4,3.1-2,4.9-2v2.3
			c-1.2,0-2.4,0.5-3.3,1.4c-2,2-1.8,4.7,0.2,6.7c2.1,2.1,4.9,2,6.7,0.2C95.2,91.7,95.7,90.5,95.7,89.3z"/>
	</g>
	<g display="inline">
		<path d="M110.1,84.4v-2.3c1.8,0,3.5,0.7,4.9,2c2.7,2.7,3,6.9-0.1,10c-3,3-7.1,3-10,0.1c-1.4-1.4-2-3.1-2-4.9h2.3
			c0,1.2,0.5,2.4,1.4,3.3c2,2,4.7,1.8,6.7-0.2c2.1-2.1,2-4.9,0.2-6.7C112.5,84.9,111.3,84.4,110.1,84.4z"/>
	</g>
	<g display="inline">
		<path d="M105.2,70h-2.3c0-1.8,0.7-3.5,2-4.9c2.7-2.7,6.9-3,10,0.1c3,3,3,7.1,0.1,10c-1.4,1.4-3.1,2-4.9,2v-2.3
			c1.2,0,2.4-0.5,3.3-1.4c2-2,1.8-4.7-0.2-6.7c-2.1-2.1-4.9-2-6.7-0.2C105.7,67.6,105.2,68.8,105.2,70z"/>
	</g>
	<g display="inline">
		<path d="M90.7,74.9v2.3c-1.8,0-3.5-0.7-4.9-2c-2.7-2.7-3-6.9,0.1-10c3-3,7.1-3,10-0.1c1.4,1.4,2,3.1,2,4.9h-2.3
			c0-1.2-0.5-2.4-1.4-3.3c-2-2-4.7-1.8-6.7,0.2c-2.1,2.1-2,4.9-0.2,6.7C88.4,74.4,89.6,74.9,90.7,74.9z"/>
	</g>
	<path display="inline" d="M8.1,126.3H5.2V138H2.9v-11.8H0v-2.1h8.1V126.3z"/>
	<path display="inline" d="M24.4,124.2V138h-2.3v-5.8h-5.8v5.8H14v-13.9h2.3v5.8h5.8v-5.8h2.3V124.2z"/>
	<path display="inline" d="M33.4,126.5v3.5h5.8v2.3h-5.8v3.5h6.9v2.3H31v-13.9h9.3v2.3C40.3,126.5,33.4,126.5,33.4,126.5z"/>
	<path display="inline" d="M66.5,134.6l1.6,1.6c-1.3,1.3-3,2-4.9,2c-3.8,0-7-2.8-7-7.1c0-4.2,2.9-7.1,7-7.1c1.9,0,3.7,0.8,4.9,2
		l-1.6,1.6c-0.8-0.8-2-1.3-3.3-1.3c-2.9,0-4.6,2-4.6,4.8c0,3,2,4.8,4.6,4.8C64.5,135.9,65.7,135.4,66.5,134.6z"/>
	<path display="inline" d="M80.4,138.2c-9.2,0-9.2-14.3,0-14.3C89.6,124,89.6,138.2,80.4,138.2z M80.4,126.2c-6,0-6,9.7,0,9.7
		C86.5,136,86.5,126.2,80.4,126.2z"/>
	<path display="inline" d="M99.8,138.2c-9.2,0-9.2-14.3,0-14.3C108.9,124,109,138.2,99.8,138.2z M99.8,126.2c-6,0-6,9.7,0,9.7
		C105.8,136,105.8,126.2,99.8,126.2z"/>
	<path display="inline" d="M118.1,131.2l5.8,6.8h-3l-4.3-5.3l-1.3,1.5v3.8H113v-13.9h2.3v7l5.7-7h2.9L118.1,131.2z"/>
	<path display="inline" d="M129.4,124.2h2.3V138h-2.3V124.2z"/>
	<path display="inline" d="M140.8,126.5v3.5h5.8v2.3h-5.8v3.5h6.9v2.3h-9.3v-13.9h9.3v2.3C147.7,126.5,140.8,126.5,140.8,126.5z"/>
	<path display="inline" d="M169,124.1v9.9c0,4-4.1,4-4.1,4h-1.7v-2.3h1.7c1.7,0,1.7-1.7,1.7-1.7v-7.7h-2.5v-2.1h4.9V124.1z"/>
	<path display="inline" d="M182.2,136.4h-4.9l-0.6,1.6h-2.5l5.5-14.3l5.6,14.3h-2.5L182.2,136.4z M178,134.4h3.4l-1.7-4.8L178,134.4
		z"/>
	<path display="inline" d="M194.6,132.3h-1.9v5.8h-2.3v-13.9h4.6c0,0,4.6,0,4.6,4c0,2.2-1.4,3.2-2.7,3.7l2.8,6.2h-2.6L194.6,132.3z
		 M192.7,129.9h2.3c0,0,2.3,0,2.3-1.7s-2.3-1.7-2.3-1.7h-2.3V129.9z"/>
</g>
<g display="none">
	<text transform="matrix(1 0 0 1 2.3438 134.9346)" display="inline"><tspan x="0" y="0" fill="#020202" font-family="'CenturyGothic'" font-size="36.0857px">Clinic</tspan><tspan x="96.363" y="0" font-family="'CenturyGothic'" font-size="36.0857px">Smart</tspan></text>
	<path display="inline" d="M99.098,96.423c-3.815,0-7.688-0.881-11.314-2.739c-1.351-0.692-2.612-1.492-3.778-2.382l1.792-2.349
		c1.029,0.784,2.141,1.491,3.332,2.1c3.198,1.638,6.61,2.414,9.972,2.414c7.962,0,15.643-4.354,19.52-11.926
		c1.232-2.401,1.975-4.923,2.27-7.455l2.935,0.342c-0.333,2.873-1.177,5.736-2.573,8.461
		C116.852,91.482,108.134,96.424,99.098,96.423"/>
	<path display="inline" d="M80.333,81.501c-1.124-1.997-1.927-4.182-2.355-6.476c-0.45-2.417-0.484-4.954-0.034-7.518
		c1.797-10.264,10.722-17.494,20.798-17.494c1.211,0,2.439,0.105,3.672,0.321c1.271,0.222,2.499,0.556,3.669,0.985
		c4.629,1.703,8.404,4.938,10.833,9.002l-2.446,1.462c-2.634-4.409-7.097-7.688-12.549-8.643c-0.54-0.094-1.08-0.164-1.615-0.21
		c-0.523-0.045-1.043-0.067-1.56-0.067c-8.717,0-16.44,6.256-17.997,15.136c-0.757,4.322,0.07,8.556,2.066,12.106L80.333,81.501"/>
	<path display="inline" d="M110.439,85.425l-1.53-1.817c6.236-5.254,7.531-14.5,2.759-21.302c-3.097-4.412-8.03-6.772-13.042-6.772
		c-1.695,0-3.398,0.27-5.043,0.822l-0.756-2.252c1.89-0.635,3.849-0.945,5.797-0.945c1.679,0,3.353,0.231,4.966,0.684
		c3.921,1.099,7.501,3.508,10.022,7.099C119.096,68.758,117.608,79.386,110.439,85.425"/>
	<path display="inline" fill-rule="evenodd" clip-rule="evenodd" d="M113.657,67.76c-1.934-7.833-9.571-13.026-17.696-11.768
		c-7.052,1.094-12.282,6.713-13.193,13.443c-0.2,1.468-0.191,2.989,0.047,4.527l2.09-0.323c-0.349-2.254-0.125-4.463,0.563-6.48
		c1.586-4.644,5.632-8.273,10.817-9.078c7.437-1.153,14.403,3.944,15.557,11.381c0.651,4.193-0.687,8.239-3.309,11.175
		c-2.029,2.271-4.827,3.88-8.07,4.382l0.323,2.09c8.592-1.333,14.479-9.38,13.147-17.971
		C113.861,68.671,113.768,68.211,113.657,67.76"/>
	<path display="inline" fill-rule="evenodd" clip-rule="evenodd" d="M106.011,82.447c6.015-4.221,7.469-12.522,3.248-18.535
		c-2.943-4.193-7.868-6.169-12.619-5.553l0.237,1.82c4.095-0.532,8.341,1.171,10.88,4.786c3.125,4.453,2.641,10.361-0.843,14.245
		c-0.574,0.638-1.226,1.221-1.958,1.734c-2.924,2.052-6.475,2.548-9.669,1.66l-0.491,1.77
		C98.501,85.403,102.621,84.828,106.011,82.447"/>
	<path display="inline" d="M99.102,92.564c-0.214,0-0.429-0.004-0.644-0.01c-1.289-0.039-2.552-0.192-3.772-0.451
		c-4.825-1.023-9.023-3.684-12.01-7.359l2.212-1.797c3.238,3.987,8.124,6.593,13.657,6.758c0.185,0.005,0.369,0.008,0.552,0.008
		c0.361,0,0.72-0.011,1.076-0.032c9.357-0.545,16.913-8.167,17.198-17.712l2.848,0.085C119.879,83.508,110.484,92.564,99.102,92.564
		"/>
</g>
<g>
	<rect x="44.749" y="106.401" width="110.857" height="1.161"/>
	<path d="M41.314,89.393c-0.145,0-0.207,0.059-0.263,0.234l-1.568,3.97c-0.288,0.726-0.43,1.422-0.43,1.769
		c0,0.524,0.26,0.898,1.16,0.898h0.434c0.345,0,0.433,0.059,0.433,0.234c0,0.231-0.173,0.29-0.494,0.29
		c-0.925,0-2.172-0.088-3.073-0.088c-0.316,0-1.914,0.088-3.422,0.088c-0.373,0-0.551-0.059-0.551-0.29
		c0-0.175,0.117-0.234,0.348-0.234c0.263,0,0.669-0.029,0.901-0.056c1.333-0.175,1.886-1.161,2.465-2.61l7.277-17.978
		c0.352-0.836,0.523-1.156,0.81-1.156c0.263,0,0.438,0.258,0.726,0.925c0.698,1.597,5.336,13.196,7.196,17.601
		c1.1,2.61,1.938,3.014,2.546,3.159c0.434,0.086,0.872,0.116,1.22,0.116c0.231,0,0.378,0.03,0.378,0.234
		c0,0.231-0.263,0.29-1.335,0.29c-1.045,0-3.161,0-5.481-0.059c-0.523-0.029-0.867-0.029-0.867-0.231
		c0-0.175,0.113-0.234,0.406-0.263c0.202-0.056,0.405-0.317,0.256-0.667l-2.316-5.973c-0.06-0.143-0.149-0.202-0.291-0.202H41.314z
		 M47.225,87.944c0.146,0,0.175-0.089,0.146-0.175l-2.612-7.132c-0.028-0.113-0.056-0.261-0.143-0.261
		c-0.088,0-0.145,0.148-0.173,0.261l-2.668,7.105c-0.028,0.113,0,0.202,0.114,0.202H47.225z"/>
	<path d="M66.531,83.277c0-4.408,0-5.22-0.058-6.15c-0.06-0.984-0.291-1.449-1.247-1.648c-0.229-0.059-0.722-0.091-1.128-0.091
		c-0.32,0-0.494-0.056-0.494-0.258c0-0.204,0.203-0.261,0.637-0.261c1.536,0,3.364,0.088,3.972,0.088
		c0.986,0,3.191-0.088,4.087-0.088c1.828,0,3.77,0.172,5.338,1.242c0.808,0.554,1.97,2.032,1.97,3.976
		c0,2.145-0.899,4.116-3.826,6.494c2.582,3.247,4.577,5.83,6.291,7.626c1.625,1.683,2.811,1.885,3.249,1.971
		c0.315,0.056,0.578,0.086,0.809,0.086c0.236,0,0.349,0.086,0.349,0.234c0,0.231-0.202,0.29-0.551,0.29h-2.753
		c-1.622,0-2.352-0.143-3.106-0.553c-1.245-0.667-2.347-2.027-3.969-4.261c-1.162-1.594-2.497-3.564-2.873-4
		c-0.143-0.175-0.317-0.204-0.519-0.204l-2.527-0.057c-0.141,0-0.231,0.057-0.231,0.231v0.404c0,2.696,0,4.989,0.146,6.206
		c0.085,0.839,0.26,1.478,1.132,1.594c0.433,0.062,1.07,0.116,1.418,0.116c0.235,0,0.349,0.086,0.349,0.234
		c0,0.202-0.203,0.29-0.58,0.29c-1.681,0-3.827-0.088-4.261-0.088c-0.551,0-2.379,0.088-3.539,0.088
		c-0.377,0-0.579-0.088-0.579-0.29c0-0.148,0.117-0.234,0.466-0.234c0.433,0,0.782-0.054,1.042-0.116
		c0.579-0.116,0.726-0.755,0.843-1.594c0.143-1.218,0.143-3.51,0.143-6.174V83.277z M69.952,85.567c0,0.315,0.062,0.436,0.263,0.522
		c0.609,0.199,1.48,0.29,2.202,0.29c1.16,0,1.537-0.118,2.06-0.497c0.871-0.635,1.711-1.97,1.711-4.347
		c0-4.116-2.724-5.306-4.439-5.306c-0.722,0-1.245,0.029-1.534,0.116c-0.202,0.059-0.263,0.175-0.263,0.408V85.567z"/>
	<path d="M94.953,83.277c0-4.408,0-5.22-0.056-6.15c-0.057-0.984-0.293-1.449-1.245-1.648c-0.236-0.059-0.725-0.091-1.132-0.091
		c-0.32,0-0.494-0.056-0.494-0.258c0-0.204,0.202-0.261,0.64-0.261c1.533,0,3.363,0.084,3.941,0.084
		c1.424,0,2.552-0.084,3.536-0.084c5.25,0,6.18,2.812,6.18,4.347c0,2.379-1.368,3.801-2.962,5.077
		c2.382,0.809,5.279,2.866,5.279,6.261c0,3.102-2.406,6.317-7.739,6.317c-0.354,0-1.191-0.054-2.032-0.084
		c-0.867-0.059-1.738-0.088-2.173-0.088c-0.32,0-0.959,0-1.653,0.029c-0.669,0-1.422,0.059-2.002,0.059
		c-0.374,0-0.576-0.088-0.576-0.29c0-0.148,0.113-0.234,0.463-0.234c0.433,0,0.782-0.054,1.045-0.116
		c0.581-0.116,0.721-0.755,0.836-1.594c0.145-1.218,0.145-3.51,0.145-6.174V83.277z M98.435,83.772c0,0.229,0.084,0.288,0.202,0.317
		c0.261,0.054,0.694,0.086,1.363,0.086c0.954,0,1.594-0.116,2.086-0.553c0.758-0.605,1.19-1.648,1.19-3.073
		c0-1.941-1.132-4.492-3.626-4.492c-0.404,0-0.664,0-0.954,0.054c-0.207,0.062-0.261,0.18-0.261,0.494V83.772z M102.258,86.089
		c-0.61-0.438-1.274-0.637-2.406-0.696c-0.522-0.029-0.812-0.029-1.245-0.029c-0.118,0-0.172,0.059-0.172,0.204v6.871
		c0,1.914,0.084,2.408,1.013,2.782c0.782,0.32,1.451,0.347,2.116,0.347c1.304,0,3.508-0.694,3.508-3.71
		C105.072,90.059,104.462,87.624,102.258,86.089"/>
	<path d="M115.641,85.826c0-4.957,3.277-11.365,11.976-11.365c7.222,0,11.714,4.204,11.714,10.844c0,6.642-4.64,11.889-12,11.889
		C119.006,97.193,115.641,90.96,115.641,85.826 M135.272,86.377c0-6.494-3.739-10.526-8.492-10.526
		c-3.336,0-7.134,1.857-7.134,9.077c0,6.032,3.336,10.814,8.9,10.814C130.573,95.742,135.272,94.756,135.272,86.377"/>
	<path d="M148.103,83.277c0-4.408,0-5.22-0.064-6.15c-0.054-0.984-0.29-1.449-1.245-1.648c-0.231-0.059-0.723-0.091-1.132-0.091
		c-0.32,0-0.492-0.056-0.492-0.258c0-0.204,0.207-0.261,0.635-0.261c1.54,0,3.365,0.084,4.236,0.084
		c0.694,0,2.524-0.084,3.567-0.084c0.438,0,0.64,0.056,0.64,0.261c0,0.202-0.177,0.258-0.467,0.258
		c-0.315,0-0.492,0.032-0.841,0.091c-0.782,0.14-1.009,0.632-1.073,1.648c-0.054,0.93-0.054,1.742-0.054,6.15v4.056
		c0,4.204,0.841,5.975,2.258,7.132c1.309,1.075,2.637,1.191,3.626,1.191c1.279,0,2.844-0.406,4-1.565
		c1.599-1.597,1.683-4.207,1.683-7.191v-3.623c0-4.408,0-5.22-0.054-6.15c-0.064-0.984-0.295-1.449-1.245-1.648
		c-0.236-0.059-0.733-0.091-1.048-0.091c-0.32,0-0.492-0.056-0.492-0.258c0-0.204,0.202-0.261,0.605-0.261
		c1.481,0,3.306,0.084,3.336,0.084c0.344,0,2.175-0.084,3.306-0.084c0.404,0,0.61,0.056,0.61,0.261c0,0.202-0.177,0.258-0.526,0.258
		c-0.315,0-0.487,0.032-0.836,0.091c-0.782,0.14-1.018,0.632-1.073,1.648c-0.059,0.93-0.059,1.742-0.059,6.15v3.099
		c0,3.218-0.32,6.642-2.755,8.728c-2.061,1.766-4.148,2.089-6.032,2.089c-1.535,0-4.32-0.086-6.435-2
		c-1.476-1.336-2.578-3.478-2.578-7.685V83.277z"/>
	<path d="M177.451,83.277c0-4.408,0-5.22-0.059-6.15c-0.059-0.984-0.29-1.449-1.245-1.648c-0.231-0.059-0.728-0.091-1.132-0.091
		c-0.315,0-0.492-0.056-0.492-0.258c0-0.204,0.202-0.261,0.64-0.261c1.535,0,3.36,0.088,3.97,0.088c0.984,0,3.188-0.088,4.089-0.088
		c1.825,0,3.769,0.172,5.333,1.242c0.817,0.554,1.973,2.032,1.973,3.976c0,2.145-0.901,4.116-3.828,6.494
		c2.578,3.247,4.581,5.83,6.288,7.626c1.624,1.683,2.819,1.885,3.247,1.971c0.325,0.056,0.585,0.086,0.817,0.086
		c0.231,0,0.344,0.086,0.344,0.234c0,0.231-0.202,0.29-0.551,0.29h-2.75c-1.629,0-2.352-0.143-3.104-0.553
		c-1.245-0.667-2.352-2.027-3.971-4.261c-1.161-1.594-2.499-3.564-2.873-4c-0.143-0.175-0.32-0.204-0.517-0.204l-2.529-0.057
		c-0.143,0-0.231,0.057-0.231,0.231v0.404c0,2.696,0,4.989,0.148,6.206c0.084,0.839,0.261,1.478,1.132,1.594
		c0.433,0.062,1.073,0.116,1.417,0.116c0.231,0,0.349,0.086,0.349,0.234c0,0.202-0.202,0.29-0.581,0.29
		c-1.678,0-3.823-0.088-4.261-0.088c-0.551,0-2.376,0.088-3.538,0.088c-0.374,0-0.581-0.088-0.581-0.29
		c0-0.148,0.118-0.234,0.462-0.234c0.438,0,0.782-0.054,1.048-0.116c0.581-0.116,0.723-0.755,0.841-1.594
		c0.143-1.218,0.143-3.51,0.143-6.174V83.277z M180.871,85.567c0,0.315,0.059,0.436,0.261,0.522c0.61,0.199,1.481,0.29,2.204,0.29
		c1.161,0,1.54-0.118,2.062-0.497c0.866-0.635,1.712-1.97,1.712-4.347c0-4.116-2.726-5.306-4.438-5.306
		c-0.723,0-1.25,0.029-1.54,0.116c-0.202,0.059-0.261,0.175-0.261,0.408V85.567z"/>
	<path d="M12.262,96.263c-0.433,0-1.07-0.056-1.476-0.116c-0.867-0.116-1.042-0.755-1.13-1.565
		c-0.146-1.247-0.146-3.538-0.146-6.204v-2.554l0,0v-1.941v-0.608c0-4.408,0-5.22,0.057-6.148c0.061-1.016,0.293-1.51,1.075-1.653
		c0.348-0.057,0.608-0.089,0.843-0.089c0.346,0,0.519-0.059,0.519-0.258c0-0.204-0.203-0.263-0.608-0.263
		c-1.135,0-2.959,0.086-3.653,0.086c-0.782,0-2.61-0.086-4.176-0.086c-0.405,0-0.608,0.059-0.608,0.263
		c0,0.199,0.174,0.258,0.491,0.258c0.405,0,0.899,0.032,1.134,0.089c0.953,0.202,1.184,0.667,1.245,1.653
		c0.058,0.928,0.058,1.739,0.058,6.148v5.102c0,2.666,0,4.957-0.143,6.174c-0.118,0.839-0.263,1.478-0.839,1.594
		c-0.267,0.059-0.613,0.116-1.05,0.116c-0.348,0-0.461,0.089-0.461,0.234c0,0.202,0.205,0.29,0.579,0.29
		c1.16,0,2.988-0.088,3.653-0.088c0.811,0,2.635,0.088,4.524,0.088c0.345,0,0.576-0.088,0.576-0.29
		C12.725,96.352,12.582,96.263,12.262,96.263"/>
	<path d="M27.311,96.263c-0.434,0-1.071-0.056-1.48-0.116c-0.868-0.116-1.042-0.755-1.128-1.565
		c-0.149-1.247-0.149-3.538-0.149-6.204v-5.102c0-4.408,0-5.22,0.06-6.148c0.06-1.016,0.291-1.51,1.074-1.653
		c0.349-0.057,0.609-0.089,0.844-0.089c0.344,0,0.519-0.059,0.519-0.258c0-0.204-0.203-0.263-0.609-0.263
		c-1.131,0-2.963,0.086-3.656,0.086c-0.78,0-2.608-0.086-4.176-0.086c-0.402,0-0.609,0.059-0.609,0.263
		c0,0.199,0.175,0.258,0.494,0.258c0.406,0,0.9,0.032,1.132,0.089c0.957,0.202,1.188,0.667,1.248,1.653
		c0.053,0.861,0.053,2.143,0.053,5.761c0.004,1.233-0.686,1.176-1.12,1.279c-1.779,0.16-5.957,0.261-6.434,0.305
		c-0.53,0.052-2.625-0.03-2.33,0.765c0.079,0.214,0.342,0.354,0.761,0.386c0.335,0.056,1.536,0.024,1.536,0.024h6.41
		c1.025,0,1.164,0.908,1.177,1.154v1.574c0,2.666,0,4.957-0.142,6.174c-0.114,0.839-0.263,1.478-0.84,1.594
		c-0.259,0.059-0.608,0.116-1.045,0.116c-0.346,0-0.466,0.089-0.466,0.234c0,0.202,0.207,0.29,0.615,0.29
		c1.128,0,2.956-0.088,3.621-0.088c0.807,0,2.639,0.088,4.524,0.088c0.349,0,0.58-0.088,0.58-0.29
		C27.777,96.352,27.631,96.263,27.311,96.263"/>
	<polygon points="69.429,124.534 68.515,124.534 68.515,120.884 64.183,120.884 64.183,124.534 63.269,124.534 63.269,116.807 
		64.183,116.807 64.183,120.064 68.515,120.064 68.515,116.807 69.429,116.807 	"/>
	<path d="M84.23,120.667c0,2.263-1.801,3.998-4.016,3.998c-2.234,0-4.001-1.744-4.001-3.998c0-2.258,1.778-3.988,4.001-3.988
		C82.429,116.679,84.23,118.409,84.23,120.667 M77.159,120.66c0,1.801,1.301,3.161,3.066,3.161c1.749,0,3.058-1.36,3.058-3.161
		c0-1.784-1.309-3.142-3.058-3.142C78.46,117.518,77.159,118.866,77.159,120.66"/>
	<polygon points="96.842,117.626 94.545,117.626 94.545,124.534 93.63,124.534 93.63,117.626 91.347,117.626 91.347,116.805 
		96.842,116.805 	"/>
	<polygon points="110.371,117.626 106.332,117.626 106.332,119.99 109.85,119.99 109.85,120.81 106.332,120.81 106.332,123.717 
		110.509,123.717 110.509,124.534 105.422,124.534 105.422,116.805 110.371,116.805 	"/>
	<polygon points="120.462,123.715 124.123,123.715 124.123,124.534 119.547,124.534 119.547,116.807 120.462,116.807 	"/>
	<path d="M136.994,117.99l-0.669,0.504c-0.408-0.622-1.063-0.974-1.766-0.974c-0.718,0-1.373,0.364-1.373,1.124
		c0,0.701,0.541,0.96,1.245,1.299l0.851,0.408c1.127,0.541,1.806,1.112,1.806,2.158c0,1.299-1.068,2.153-2.494,2.153
		c-1.23,0-2.249-0.645-2.844-1.663l0.679-0.502c0.468,0.713,1.156,1.324,2.15,1.324c0.915,0,1.56-0.507,1.56-1.289
		c0-0.713-0.526-0.994-1.289-1.361l-0.866-0.406c-0.9-0.433-1.747-0.984-1.747-2.074c0-1.23,1.082-2.012,2.337-2.012
		C135.621,116.679,136.512,117.228,136.994,117.99"/>
</g>
</svg>
