<?xml version="1.0" encoding="utf-8"?>
<!-- Generator: Adobe Illustrator 22.1.0, SVG Export Plug-In . SVG Version: 6.00 Build 0)  -->
<svg version="1.1" id="Layer_1" xmlns="http://www.w3.org/2000/svg" xmlns:xlink="http://www.w3.org/1999/xlink" x="0px" y="0px"
	 viewBox="0 0 200 200" enable-background="new 0 0 200 200" xml:space="preserve">
<g display="none">
	<text transform="matrix(1 0 0 1 0.4459 153.9453)" display="inline" font-family="'Wearetrippin-Display'" font-size="46.809px">M</text>
	<text transform="matrix(1 0 0 1 32.9459 153.9453)" display="inline" font-family="'Wearetrippin-Display'" font-size="46.809px">ALHOTRA</text>
	<g display="inline">
		<rect x="61.2" y="39.9" width="21.5" height="59.1"/>
		<rect x="117.6" y="39.9" width="21.5" height="59.1"/>
		<rect x="89.4" y="57.3" width="21.5" height="41.7"/>
	</g>
</g>
<g display="none">
	<g display="inline">
		<path d="M58.7,152.8c0.7,0,1.2,0.3,1.5,0.7l-0.4,0.5c-0.3-0.3-0.7-0.5-1.1-0.5c-1.1,0-1.8,0.9-1.8,2.3c0,1.4,0.7,2.3,1.8,2.3
			c0.5,0,0.9-0.2,1.3-0.6l0.4,0.4c-0.4,0.5-1,0.8-1.7,0.8c-1.4,0-2.5-1.1-2.5-2.9C56.2,153.9,57.3,152.8,58.7,152.8z"/>
		<path d="M64.4,155.7c0-1.8,1-2.9,2.4-2.9s2.4,1.1,2.4,2.9c0,1.8-1,3-2.4,3S64.4,157.5,64.4,155.7z M68.5,155.7
			c0-1.4-0.7-2.3-1.7-2.3s-1.7,0.9-1.7,2.3c0,1.4,0.7,2.3,1.7,2.3C67.9,158,68.5,157.1,68.5,155.7z"/>
		<path d="M74.1,157.3c0.4,0.4,1,0.7,1.6,0.7c0.7,0,1.2-0.4,1.2-0.9c0-0.6-0.4-0.8-0.9-1l-0.8-0.4c-0.5-0.2-1.1-0.6-1.1-1.5
			s0.8-1.5,1.8-1.5c0.7,0,1.3,0.3,1.7,0.7L77,154c-0.3-0.3-0.8-0.5-1.3-0.5c-0.6,0-1.1,0.3-1.1,0.8s0.5,0.7,0.9,0.9l0.8,0.3
			c0.7,0.3,1.2,0.7,1.2,1.5c0,0.9-0.7,1.6-1.9,1.6c-0.8,0-1.5-0.3-2-0.8L74.1,157.3z"/>
		<path d="M83.1,156.4l-1.7-3.5h0.8l0.7,1.6c0.2,0.4,0.4,0.8,0.6,1.2l0,0c0.2-0.4,0.4-0.8,0.6-1.2l0.7-1.6h0.7l-1.7,3.5v2.2h-0.7
			V156.4z"/>
		<path d="M98.3,158.6l-1.4-2.4h-1v2.4h-0.7V153H97c1.1,0,2,0.4,2,1.6c0,0.9-0.5,1.4-1.3,1.6l1.4,2.5h-0.8V158.6z M95.9,155.6h0.9
			c0.9,0,1.4-0.4,1.4-1.1c0-0.7-0.5-1-1.4-1h-0.9V155.6z"/>
		<path d="M103.8,152.9h3.3v0.6h-2.5v1.8h2.1v0.6h-2.1v2h2.6v0.6h-3.3v-5.6H103.8z"/>
		<path d="M113.1,153.5h-1.7v-0.6h4.1v0.6h-1.7v5h-0.7C113.1,158.5,113.1,153.5,113.1,153.5z"/>
		<path d="M123.2,158.6l-1.4-2.4h-1v2.4h-0.7V153h1.8c1.1,0,2,0.4,2,1.6c0,0.9-0.5,1.4-1.3,1.6l1.4,2.5h-0.8V158.6z M120.8,155.6
			h0.9c0.9,0,1.4-0.4,1.4-1.1c0-0.7-0.5-1-1.4-1h-0.9V155.6z"/>
		<path d="M128.7,152.9h3.3v0.6h-2.5v1.8h2.1v0.6h-2.1v2h2.6v0.6h-3.3v-5.6H128.7z"/>
		<path d="M139.4,156.8h-2.1l-0.5,1.7H136l1.9-5.6h0.8l1.9,5.6h-0.8L139.4,156.8z M139.2,156.3l-0.3-0.9c-0.2-0.6-0.4-1.2-0.6-1.9
			l0,0c-0.2,0.7-0.4,1.3-0.6,1.9l-0.3,0.9H139.2z"/>
		<path d="M145.9,153.5h-1.7v-0.6h4.1v0.6h-1.7v5h-0.7L145.9,153.5L145.9,153.5z"/>
	</g>
	<g display="inline">
		<path d="M90.2,83.1l1.6,1.6c-1.3,1.3-3,2-4.9,2c-3.8,0-7-2.8-7-7.1c0-4.2,2.9-7.1,7-7.1c1.9,0,3.7,0.8,4.9,2l-1.6,1.6
			c-0.8-0.8-2-1.4-3.3-1.4c-2.9,0-4.6,2-4.6,4.8c0,3,2,4.8,4.6,4.8C88.2,84.5,89.4,84,90.2,83.1z"/>
	</g>
	<g display="inline">
		<path d="M103.9,89.9l1.6-1.6c1.3,1.3,2,3,2,4.9c0,3.8-2.8,7-7.1,7c-4.2,0-7.1-2.9-7.1-7c0-1.9,0.8-3.7,2-4.9l1.6,1.6
			c-0.8,0.8-1.4,2-1.4,3.3c0,2.9,2,4.6,4.8,4.6c3,0,4.8-2,4.8-4.6C105.2,91.9,104.7,90.7,103.9,89.9z"/>
	</g>
	<g display="inline">
		<path d="M110.6,76.2l-1.6-1.6c1.3-1.3,3-2,4.9-2c3.8,0,7,2.8,7,7.1c0,4.2-2.9,7.1-7,7.1c-1.9,0-3.7-0.8-4.9-2l1.6-1.6
			c0.8,0.8,2,1.4,3.3,1.4c2.9,0,4.6-2,4.6-4.8c0-3-2-4.8-4.6-4.8C112.7,74.8,111.5,75.3,110.6,76.2z"/>
	</g>
	<g display="inline">
		<path d="M97,69.4L95.4,71c-1.3-1.3-2-3-2-4.9c0-3.8,2.8-7,7.1-7c4.2,0,7.1,2.9,7.1,7c0,1.9-0.8,3.7-2,4.9l-1.6-1.6
			c0.8-0.8,1.4-2,1.4-3.3c0-2.9-2-4.6-4.8-4.6c-3,0-4.8,2-4.8,4.6C95.6,67.4,96.1,68.6,97,69.4z"/>
	</g>
	<g display="inline">
		<path d="M95.7,89.3H98c0,1.8-0.7,3.5-2,4.9c-2.7,2.7-6.9,3-10-0.1c-3-3-3-7.1-0.1-10c1.4-1.4,3.1-2,4.9-2v2.3
			c-1.2,0-2.4,0.5-3.3,1.4c-2,2-1.8,4.7,0.2,6.7c2.1,2.1,4.9,2,6.7,0.2C95.2,91.7,95.7,90.5,95.7,89.3z"/>
	</g>
	<g display="inline">
		<path d="M110.1,84.4v-2.3c1.8,0,3.5,0.7,4.9,2c2.7,2.7,3,6.9-0.1,10c-3,3-7.1,3-10,0.1c-1.4-1.4-2-3.1-2-4.9h2.3
			c0,1.2,0.5,2.4,1.4,3.3c2,2,4.7,1.8,6.7-0.2c2.1-2.1,2-4.9,0.2-6.7C112.5,84.9,111.3,84.4,110.1,84.4z"/>
	</g>
	<g display="inline">
		<path d="M105.2,70h-2.3c0-1.8,0.7-3.5,2-4.9c2.7-2.7,6.9-3,10,0.1c3,3,3,7.1,0.1,10c-1.4,1.4-3.1,2-4.9,2v-2.3
			c1.2,0,2.4-0.5,3.3-1.4c2-2,1.8-4.7-0.2-6.7c-2.1-2.1-4.9-2-6.7-0.2C105.7,67.6,105.2,68.8,105.2,70z"/>
	</g>
	<g display="inline">
		<path d="M90.7,74.9v2.3c-1.8,0-3.5-0.7-4.9-2c-2.7-2.7-3-6.9,0.1-10c3-3,7.1-3,10-0.1c1.4,1.4,2,3.1,2,4.9h-2.3
			c0-1.2-0.5-2.4-1.4-3.3c-2-2-4.7-1.8-6.7,0.2c-2.1,2.1-2,4.9-0.2,6.7C88.4,74.4,89.6,74.9,90.7,74.9z"/>
	</g>
	<path display="inline" d="M8.1,126.3H5.2V138H2.9v-11.8H0v-2.1h8.1V126.3z"/>
	<path display="inline" d="M24.4,124.2V138h-2.3v-5.8h-5.8v5.8H14v-13.9h2.3v5.8h5.8v-5.8h2.3V124.2z"/>
	<path display="inline" d="M33.4,126.5v3.5h5.8v2.3h-5.8v3.5h6.9v2.3H31v-13.9h9.3v2.3C40.3,126.5,33.4,126.5,33.4,126.5z"/>
	<path display="inline" d="M66.5,134.6l1.6,1.6c-1.3,1.3-3,2-4.9,2c-3.8,0-7-2.8-7-7.1c0-4.2,2.9-7.1,7-7.1c1.9,0,3.7,0.8,4.9,2
		l-1.6,1.6c-0.8-0.8-2-1.3-3.3-1.3c-2.9,0-4.6,2-4.6,4.8c0,3,2,4.8,4.6,4.8C64.5,135.9,65.7,135.4,66.5,134.6z"/>
	<path display="inline" d="M80.4,138.2c-9.2,0-9.2-14.3,0-14.3C89.6,124,89.6,138.2,80.4,138.2z M80.4,126.2c-6,0-6,9.7,0,9.7
		C86.5,136,86.5,126.2,80.4,126.2z"/>
	<path display="inline" d="M99.8,138.2c-9.2,0-9.2-14.3,0-14.3C108.9,124,109,138.2,99.8,138.2z M99.8,126.2c-6,0-6,9.7,0,9.7
		C105.8,136,105.8,126.2,99.8,126.2z"/>
	<path display="inline" d="M118.1,131.2l5.8,6.8h-3l-4.3-5.3l-1.3,1.5v3.8H113v-13.9h2.3v7l5.7-7h2.9L118.1,131.2z"/>
	<path display="inline" d="M129.4,124.2h2.3V138h-2.3V124.2z"/>
	<path display="inline" d="M140.8,126.5v3.5h5.8v2.3h-5.8v3.5h6.9v2.3h-9.3v-13.9h9.3v2.3C147.7,126.5,140.8,126.5,140.8,126.5z"/>
	<path display="inline" d="M169,124.1v9.9c0,4-4.1,4-4.1,4h-1.7v-2.3h1.7c1.7,0,1.7-1.7,1.7-1.7v-7.7h-2.5v-2.1h4.9V124.1z"/>
	<path display="inline" d="M182.2,136.4h-4.9l-0.6,1.6h-2.5l5.5-14.3l5.6,14.3h-2.5L182.2,136.4z M178,134.4h3.4l-1.7-4.8L178,134.4
		z"/>
	<path display="inline" d="M194.6,132.3h-1.9v5.8h-2.3v-13.9h4.6c0,0,4.6,0,4.6,4c0,2.2-1.4,3.2-2.7,3.7l2.8,6.2h-2.6L194.6,132.3z
		 M192.7,129.9h2.3c0,0,2.3,0,2.3-1.7s-2.3-1.7-2.3-1.7h-2.3V129.9z"/>
</g>
<g>
	<text transform="matrix(1 0 0 1 2.3438 134.9346)"><tspan x="0" y="0" fill="#020202" font-family="'CenturyGothic'" font-size="36.0857px">Clinic</tspan><tspan x="96.363" y="0" font-family="'CenturyGothic'" font-size="36.0857px">Smart</tspan></text>
	<path d="M99.098,96.423c-3.815,0-7.688-0.881-11.314-2.739c-1.351-0.692-2.612-1.492-3.778-2.382l1.792-2.349
		c1.029,0.784,2.141,1.491,3.332,2.1c3.198,1.638,6.61,2.414,9.972,2.414c7.962,0,15.643-4.354,19.52-11.926
		c1.232-2.401,1.975-4.923,2.27-7.455l2.935,0.342c-0.333,2.873-1.177,5.736-2.573,8.461
		C116.852,91.482,108.134,96.424,99.098,96.423"/>
	<path d="M80.333,81.501c-1.124-1.997-1.927-4.182-2.355-6.476c-0.45-2.417-0.484-4.954-0.034-7.518
		c1.797-10.264,10.722-17.494,20.798-17.494c1.211,0,2.439,0.105,3.672,0.321c1.271,0.222,2.499,0.556,3.669,0.985
		c4.629,1.703,8.404,4.938,10.833,9.002l-2.446,1.462c-2.634-4.409-7.097-7.688-12.549-8.643c-0.54-0.094-1.08-0.164-1.615-0.21
		c-0.523-0.045-1.043-0.067-1.56-0.067c-8.717,0-16.44,6.256-17.997,15.136c-0.757,4.322,0.07,8.556,2.066,12.106L80.333,81.501"/>
	<path d="M110.439,85.425l-1.53-1.817c6.236-5.254,7.531-14.5,2.759-21.302c-3.097-4.412-8.03-6.772-13.042-6.772
		c-1.695,0-3.398,0.27-5.043,0.822l-0.756-2.252c1.89-0.635,3.849-0.945,5.797-0.945c1.679,0,3.353,0.231,4.966,0.684
		c3.921,1.099,7.501,3.508,10.022,7.099C119.096,68.758,117.608,79.386,110.439,85.425"/>
	<path fill-rule="evenodd" clip-rule="evenodd" d="M113.657,67.76c-1.934-7.833-9.571-13.026-17.696-11.768
		c-7.052,1.094-12.282,6.713-13.193,13.443c-0.2,1.468-0.191,2.989,0.047,4.527l2.09-0.323c-0.349-2.254-0.125-4.463,0.563-6.48
		c1.586-4.644,5.632-8.273,10.817-9.078c7.437-1.153,14.403,3.944,15.557,11.381c0.651,4.193-0.687,8.239-3.309,11.175
		c-2.029,2.271-4.827,3.88-8.07,4.382l0.323,2.09c8.592-1.333,14.479-9.38,13.147-17.971
		C113.861,68.671,113.768,68.211,113.657,67.76"/>
	<path fill-rule="evenodd" clip-rule="evenodd" d="M106.011,82.447c6.015-4.221,7.469-12.522,3.248-18.535
		c-2.943-4.193-7.868-6.169-12.619-5.553l0.237,1.82c4.095-0.532,8.341,1.171,10.88,4.786c3.125,4.453,2.641,10.361-0.843,14.245
		c-0.574,0.638-1.226,1.221-1.958,1.734c-2.924,2.052-6.475,2.548-9.669,1.66l-0.491,1.77
		C98.501,85.403,102.621,84.828,106.011,82.447"/>
	<path d="M99.102,92.564c-0.214,0-0.429-0.004-0.644-0.01c-1.289-0.039-2.552-0.192-3.772-0.451
		c-4.825-1.023-9.023-3.684-12.01-7.359l2.212-1.797c3.238,3.987,8.124,6.593,13.657,6.758c0.185,0.005,0.369,0.008,0.552,0.008
		c0.361,0,0.72-0.011,1.076-0.032c9.357-0.545,16.913-8.167,17.198-17.712l2.848,0.085C119.879,83.508,110.484,92.564,99.102,92.564
		"/>
</g>
</svg>
