<?xml version="1.0" encoding="utf-8"?>
<!-- Generator: Adobe Illustrator 22.1.0, SVG Export Plug-In . SVG Version: 6.00 Build 0)  -->
<svg version="1.1" id="Layer_1" xmlns="http://www.w3.org/2000/svg" xmlns:xlink="http://www.w3.org/1999/xlink" x="0px" y="0px"
	 viewBox="0 0 597 64.1" style="enable-background:new 0 0 597 64.1;" xml:space="preserve">
<g>
	<path d="M31.1,0C46,0,53.4,8,53.4,8l-3.2,4.6c0,0-7.2-6.9-18.9-6.9c-14.5,0-25,11.3-25,25.9c0,14.9,10.5,26.9,25.2,26.9
		c12.6,0,20.2-8.4,20.2-8.4l3.6,4.4c0,0-8.4,9.5-23.8,9.5C13.2,64.1,0,49.8,0,31.7C0,13.5,13.4,0,31.1,0z"/>
	<path d="M122.3,1h6.1v40.4c0,10.7,6.9,17.2,17.5,17.2c10.7,0,17.7-6.5,17.7-17.4V1h6.1v40.4c0,13.7-9.5,22.7-23.7,22.7
		s-23.8-9-23.8-22.7L122.3,1L122.3,1z"/>
	<path d="M240.1,1h18.3c6.3,0,9.2,0.6,11.6,1.7c5.9,2.5,9.3,8.4,9.3,16c0,8.4-4.8,14.9-11.8,16.8v0.2c0,0,0.6,0.8,1.5,2.5l13.5,25
		h-7.1L261.5,37h-15.6v26.1h-6.1V1H240.1z M260.9,31.5c7.4,0,12.2-4.8,12.2-12.6c0-5.1-2.1-9-5.7-10.9c-1.9-1-4-1.5-8.8-1.5H246v25
		H260.9z"/>
	<path d="M379.2,43.3h-25l-7.1,19.8h-6.5l22.7-62h6.5l22.7,62H386L379.2,43.3z M366.6,7.4c0,0-1.3,5.1-2.5,8L355.7,38h21.4l-8-22.5
		C368.1,12.6,366.8,7.4,366.6,7.4L366.6,7.4z"/>
	<path d="M467.7,6.5h-22.3V1h50.5v5.5h-22.3v56.6h-6.1V6.5H467.7z"/>
	<path d="M560.4,1h34.9v5.5h-28.8v22.7h23.7v5.5h-23.7v23.1H597v5.5h-36.6V1z"/>
</g>
</svg>
